<?xml version="1.0" encoding="UTF-8"?>
<svg version="1.1" xmlns="http://www.w3.org/2000/svg" width="32" height="32">
<path d="M0 0 C1.5778125 -0.00193359 1.5778125 -0.00193359 3.1875 -0.00390625 C4.280625 -0.00003906 5.37375 0.00382812 6.5 0.0078125 C7.593125 0.00394531 8.68625 0.00007813 9.8125 -0.00390625 C10.864375 -0.00261719 11.91625 -0.00132813 13 0 C14.43859375 0.00169189 14.43859375 0.00169189 15.90625 0.00341797 C18.5 0.1328125 18.5 0.1328125 22.5 1.1328125 C22.5 11.0328125 22.5 20.9328125 22.5 31.1328125 C19.03331969 31.99948258 16.51840948 32.26148709 13 32.265625 C11.4221875 32.26755859 11.4221875 32.26755859 9.8125 32.26953125 C8.719375 32.26566406 7.62625 32.26179688 6.5 32.2578125 C5.406875 32.26167969 4.31375 32.26554687 3.1875 32.26953125 C2.135625 32.26824219 1.08375 32.26695313 0 32.265625 C-0.9590625 32.26449707 -1.918125 32.26336914 -2.90625 32.26220703 C-5.5 32.1328125 -5.5 32.1328125 -9.5 31.1328125 C-9.5 21.2328125 -9.5 11.3328125 -9.5 1.1328125 C-6.03331969 0.26614242 -3.51840948 0.00413791 0 0 Z " fill="#C5190E" transform="translate(9.5,-0.1328125)"/>
<path d="M0 0 C1.23556641 0.01740234 1.23556641 0.01740234 2.49609375 0.03515625 C3.32238281 0.04417969 4.14867187 0.05320312 5 0.0625 C5.63808594 0.07410156 6.27617187 0.08570313 6.93359375 0.09765625 C7.01461435 2.2011912 7.07279282 4.30561577 7.12109375 6.41015625 C7.15589844 7.58191406 7.19070312 8.75367188 7.2265625 9.9609375 C6.93359375 13.09765625 6.93359375 13.09765625 5.65234375 15.03515625 C2.77172359 16.81590326 0.10439621 15.75574733 -3.06640625 15.09765625 C-3.06640625 14.10765625 -3.06640625 13.11765625 -3.06640625 12.09765625 C-1.08640625 12.09765625 0.89359375 12.09765625 2.93359375 12.09765625 C2.03640625 11.94296875 2.03640625 11.94296875 1.12109375 11.78515625 C-1.52680447 10.95295967 -2.57131591 10.45832521 -4.06640625 8.09765625 C-3.51941783 0.16632409 -3.51941783 0.16632409 0 0 Z " fill="#F7E2E0" transform="translate(11.06640625,9.90234375)"/>
<path d="M0 0 C0 4.95 0 9.9 0 15 C-0.99 15 -1.98 15 -3 15 C-3 11.7 -3 8.4 -3 5 C-3.66 5 -4.32 5 -5 5 C-5 4.01 -5 3.02 -5 2 C-2 0 -2 0 0 0 Z " fill="#F6DFDD" transform="translate(25,6)"/>
<path d="M0 0 C1.2065625 0.0309375 1.2065625 0.0309375 2.4375 0.0625 C2.7675 0.7225 3.0975 1.3825 3.4375 2.0625 C2.1175 2.3925 0.7975 2.7225 -0.5625 3.0625 C-0.2325 5.3725 0.0975 7.6825 0.4375 10.0625 C-3.4375 9.1875 -3.4375 9.1875 -4.5625 8.0625 C-3.70835153 0.0904476 -3.70835153 0.0904476 0 0 Z " fill="#FAEEED" transform="translate(11.5625,9.9375)"/>
<path d="M0 0 C0.33 0.99 0.66 1.98 1 3 C0.34 3.66 -0.32 4.32 -1 5 C-4.625 4.625 -4.625 4.625 -8 4 C-8 3.01 -8 2.02 -8 1 C-7.05125 1.020625 -6.1025 1.04125 -5.125 1.0625 C-2.09333717 1.22551826 -2.09333717 1.22551826 0 0 Z " fill="#F8E5E3" transform="translate(16,21)"/>
<path d="M0 0 C1.65 0 3.3 0 5 0 C4.67 1.65 4.34 3.3 4 5 C2.68 4.67 1.36 4.34 0 4 C0 2.68 0 1.36 0 0 Z " fill="#C51B12" transform="translate(10,13)"/>
<path d="" fill="#FF0000" transform="translate(0,0)"/>
<path d="" fill="#FF0000" transform="translate(0,0)"/>
<path d="" fill="#FF0000" transform="translate(0,0)"/>
<path d="" fill="#FF0000" transform="translate(0,0)"/>
</svg>
